<svg width="1000" height="667" viewBox="0 0 1000 667" fill="none" xmlns="http://www.w3.org/2000/svg">
<g clip-path="url(#clip0_1_4)">
<path d="M3.05176e-05 659.398H1000V-7.26831H3.05176e-05V659.398Z" fill="url(#paint0_radial_1_4)"/>
<path d="M119.551 80.2823C114.919 80.2823 111.163 84.0383 111.163 88.6716V546.816C111.163 551.448 114.919 555.205 119.551 555.205H862.648C867.281 555.205 871.039 551.448 871.039 546.816V88.6716C871.039 84.0383 867.281 80.2823 862.648 80.2823H119.551Z" fill="url(#paint1_linear_1_4)"/>
<g opacity="0.740005">
<path d="M877.897 162.356C878.764 219.981 866.361 317.292 712.085 328.197C585.959 337.11 503.175 386.29 482.679 468.934C464.949 540.424 513.528 653.184 693.387 647.876C878.831 642.404 937.273 450.269 919.072 378.706C900.871 307.146 922.816 208.868 1010.35 207.35C1051.94 206.63 1025.66 162.798 984.935 134.121C939.925 102.425 876.628 78.0676 877.897 162.356" fill="url(#paint2_linear_1_4)"/>
</g>
<g opacity="0.740005">
<path d="M517.415 -43.3696C485.785 -0.328304 473.519 163.425 590.913 221.218C708.308 279.012 867.241 226.185 894.333 107.436C921.424 -11.3123 819.381 76.733 749.847 4.49035C680.313 -67.7523 578.468 -126.45 517.415 -43.3696Z" fill="url(#paint3_linear_1_4)"/>
</g>
<g opacity="0.740005">
<path d="M637.151 26.9543C618.88 81.7663 697.596 141.621 606.04 227.842C547.463 283.008 500.187 382.509 584.089 491.842C667.993 601.176 802.04 621.621 960.707 590.954C1119.37 560.288 866.04 466.954 932.707 302.954C999.373 138.954 935.817 53.621 827.596 6.95431C719.373 -39.7124 657.596 -34.379 637.151 26.9543Z" fill="url(#paint4_linear_1_4)"/>
</g>
<g opacity="0.740005">
<path d="M975.427 395.214C900.181 383.734 849.907 580.904 621.373 464.065C480.989 392.293 374.321 433.565 313.452 481.388C226.04 550.065 174.252 683.076 206.499 821.641C238.744 960.204 439.412 744.721 528.524 666.786C617.637 588.852 817.253 637.988 901.807 649.446C939.717 654.585 1038.25 672.329 1077.1 622.008C1172.5 498.444 1051.15 406.766 975.427 395.214" fill="url(#paint5_linear_1_4)"/>
</g>
<g opacity="0.740005">
<path d="M82.1294 507.886C133.807 474.236 243.019 458.997 351.463 491.886C459.907 524.774 543.981 603.886 569.056 704.33C594.129 804.774 391.463 604.774 289.24 698.108C187.019 791.441 9.24003 762.997 0.352032 661.432C-4.61063 604.726 43.9067 532.774 82.1294 507.886" fill="url(#paint6_linear_1_4)"/>
</g>
<g opacity="0.740005">
<path d="M356.707 7.39831C367.373 88.7316 403.373 262.065 643.373 166.065C883.373 70.065 958.04 263.398 958.04 263.398V20.7316L356.707 7.39831Z" fill="url(#paint7_linear_1_4)"/>
</g>
<path d="M816.405 130.066H827.597" stroke="white" stroke-width="1.33333" stroke-miterlimit="10" stroke-linecap="round" stroke-linejoin="round"/>
</g>
<defs>
<radialGradient id="paint0_radial_1_4" cx="0" cy="0" r="1" gradientUnits="userSpaceOnUse" gradientTransform="translate(519.373 658.065) rotate(-90) scale(665.815 665.815)">
<stop stop-color="#670C94"/>
<stop offset="1" stop-color="#430065"/>
</radialGradient>
<linearGradient id="paint1_linear_1_4" x1="491.1" y1="91.3983" x2="491.1" y2="552.762" gradientUnits="userSpaceOnUse">
<stop stop-color="#2D0066"/>
<stop offset="1" stop-color="#570997"/>
</linearGradient>
<linearGradient id="paint2_linear_1_4" x1="614.061" y1="225.508" x2="808.173" y2="417.153" gradientUnits="userSpaceOnUse">
<stop stop-color="#651FFF"/>
<stop offset="1"/>
</linearGradient>
<linearGradient id="paint3_linear_1_4" x1="649.448" y1="254.087" x2="690.085" y2="84.3168" gradientUnits="userSpaceOnUse">
<stop stop-color="#4064FF"/>
<stop offset="1"/>
</linearGradient>
<linearGradient id="paint4_linear_1_4" x1="489.832" y1="282.501" x2="949.368" y2="294.541" gradientUnits="userSpaceOnUse">
<stop stop-color="#4064FF"/>
<stop offset="1"/>
</linearGradient>
<linearGradient id="paint5_linear_1_4" x1="645.682" y1="374.218" x2="653.682" y2="612.885" gradientUnits="userSpaceOnUse">
<stop stop-color="#D500F9"/>
<stop offset="1"/>
</linearGradient>
<linearGradient id="paint6_linear_1_4" x1="278.999" y1="463.956" x2="282.555" y2="583.956" gradientUnits="userSpaceOnUse">
<stop stop-color="#448AFF"/>
<stop offset="1"/>
</linearGradient>
<linearGradient id="paint7_linear_1_4" x1="628.871" y1="363.419" x2="670.204" y2="32.7522" gradientUnits="userSpaceOnUse">
<stop stop-color="#D500F9"/>
<stop offset="1"/>
</linearGradient>
<clipPath id="clip0_1_4">
<rect width="1000" height="666.667" fill="white"/>
</clipPath>
</defs>
</svg>
